<svg width="512" height="512" viewBox="0 0 512 512" fill="none" xmlns="http://www.w3.org/2000/svg">
  <rect width="512" height="512" rx="120" fill="#F8F2EA"/>
  <circle cx="256" cy="256" r="148" fill="#FFF9F2" stroke="#D59A43" stroke-width="20"/>
  <path d="M193 244C193 205.34 224.34 174 263 174H312V214H263C246.431 214 233 227.431 233 244V284C233 300.569 246.431 314 263 314H286V354H263C224.34 354 193 322.66 193 284V244Z" fill="#1F1A17"/>
  <path d="M282 214H320C356.451 214 386 243.549 386 280C386 316.451 356.451 346 320 346H282V306H320C334.359 306 346 294.359 346 280C346 265.641 334.359 254 320 254H282V214Z" fill="#D59A43"/>
</svg>
